<svg width="17" height="15" viewBox="0 0 17 15" fill="none" xmlns="http://www.w3.org/2000/svg">
<path d="M15.2526 3.73827C15.2634 3.90232 15.2634 4.06641 15.2634 4.23047C15.2634 9.23435 11.7577 15 5.35027 15C3.37627 15 1.54252 14.3789 0 13.3008C0.280468 13.3359 0.550112 13.3477 0.841371 13.3477C2.47016 13.3477 3.96955 12.75 5.16689 11.7305C3.63516 11.6953 2.35152 10.6055 1.90925 9.10547C2.12501 9.1406 2.34073 9.16405 2.56728 9.16405C2.88008 9.16405 3.19292 9.11715 3.48415 9.03516C1.8877 8.68357 0.690329 7.16015 0.690329 5.32031V5.27345C1.15415 5.5547 1.69353 5.73048 2.26519 5.75389C1.32674 5.07419 0.711911 3.91405 0.711911 2.60154C0.711911 1.89842 0.884468 1.25389 1.18652 0.691389C2.90163 2.98826 5.4797 4.48824 8.37054 4.65233C8.31662 4.37108 8.28425 4.07814 8.28425 3.78516C8.28425 1.6992 9.83756 0 11.7684 0C12.7716 0 13.6776 0.45703 14.3141 1.19531C15.1015 1.03126 15.8566 0.714835 16.5254 0.281252C16.2665 1.16018 15.7164 1.89846 14.9937 2.36718C15.6948 2.28519 16.3744 2.0742 17 1.78126C16.5255 2.53123 15.9321 3.19917 15.2526 3.73827Z" fill="#393E46"/>
</svg>
